<svg xmlns="http://www.w3.org/2000/svg" viewBox="0 0 512 512">
  <rect width="512" height="512" rx="100" fill="#2A4BD7"/>
  <path d="M213.3 277.3c-10.7 0-21.3-4-29.3-12l-64-64c-16-16-16-42.7 0-58.7l64-64c16-16 42.7-16 58.7 0l12 12c16 16 16 42.7 0 58.7l-64 64c-8 8-18.7 12-29.3 12h-48.1zm85.4-85.3c-10.7 0-21.3-4-29.3-12l-12-12c-16-16-16-42.7 0-58.7l64-64c16-16 42.7-16 58.7 0l64 64c16 16 16 42.7 0 58.7l-12 12c-8 8-18.7 12-29.3 12H298.7z" fill="#FFFFFF" opacity="0.9"/>
  <path d="M298.7 234.7c10.7 0 21.3 4 29.3 12l64 64c16 16 16 42.7 0 58.7l-64 64c-16 16-42.7 16-58.7 0l-12-12c-16-16-16-42.7 0-58.7l64-64c8-8 18.7-12 29.3-12h48.1zm-85.4 85.3c10.7 0 21.3 4 29.3 12l12 12c16 16 16 42.7 0 58.7l-64 64c-16 16-42.7 16-58.7 0l-64-64c-16-16-16-42.7 0-58.7l12-12c8-8 18.7-12 29.3-12H213.3z" fill="#FFFFFF" opacity="0.9"/>
</svg>
